<svg fill="#4e6bff" version="1.1" id="Capa_1" xmlns="http://www.w3.org/2000/svg" xmlns:xlink="http://www.w3.org/1999/xlink" width="50px" height="50px" viewBox="0 0 400.309 400.309" xml:space="preserve"><g id="SVGRepo_bgCarrier" stroke-width="0"></g><g id="SVGRepo_tracerCarrier" stroke-linecap="round" stroke-linejoin="round"></g><g id="SVGRepo_iconCarrier"> <g> <path d="M380.005,0H20.304C9.089,0,0.001,9.091,0.001,20.305v359.699c0,11.215,9.088,20.305,20.303,20.305h359.701 c11.215,0,20.303-9.09,20.303-20.305v-359.7C400.308,9.091,391.22,0,380.005,0z M324.364,227.578 c0,6.492-5.262,11.755-11.754,11.755h-73.276v73.278c0,6.49-5.263,11.754-11.755,11.754h-54.852 c-6.49,0-11.752-5.264-11.752-11.754v-73.279H87.699c-6.492,0-11.756-5.262-11.756-11.752v-54.852 c0-6.491,5.264-11.754,11.756-11.753h73.277V87.697c0-6.491,5.262-11.754,11.752-11.754h54.852c6.492,0,11.755,5.263,11.755,11.754 v73.278h73.276c6.492,0,11.754,5.263,11.754,11.754V227.578z"></path> </g> </g></svg>